<mxfile host="app.diagrams.net" agent="Mozilla/5.0 (Windows NT 10.0; Win64; x64) AppleWebKit/537.36 (KHTML, like Gecko) Chrome/128.0.0.0 Safari/537.36" version="24.7.14">
  <diagram id="C5RBs43oDa-KdzZeNtuy" name="Page-1">
    <mxGraphModel dx="2074" dy="1106" grid="1" gridSize="10" guides="1" tooltips="1" connect="1" arrows="1" fold="1" page="1" pageScale="1" pageWidth="827" pageHeight="1169" math="0" shadow="0">
      <root>
        <mxCell id="WIyWlLk6GJQsqaUBKTNV-0" />
        <mxCell id="WIyWlLk6GJQsqaUBKTNV-1" parent="WIyWlLk6GJQsqaUBKTNV-0" />
        <mxCell id="WIyWlLk6GJQsqaUBKTNV-2" value="" style="rounded=0;html=1;jettySize=auto;orthogonalLoop=1;fontSize=11;endArrow=block;endFill=0;endSize=8;strokeWidth=1;shadow=0;labelBackgroundColor=none;edgeStyle=orthogonalEdgeStyle;" parent="WIyWlLk6GJQsqaUBKTNV-1" source="WIyWlLk6GJQsqaUBKTNV-3" edge="1">
          <mxGeometry relative="1" as="geometry">
            <mxPoint x="220" y="170" as="targetPoint" />
          </mxGeometry>
        </mxCell>
        <mxCell id="WIyWlLk6GJQsqaUBKTNV-3" value="Collect business needs and requirements for the database." style="rounded=1;whiteSpace=wrap;html=1;fontSize=12;glass=0;strokeWidth=1;shadow=0;" parent="WIyWlLk6GJQsqaUBKTNV-1" vertex="1">
          <mxGeometry x="160" y="80" width="120" height="60" as="geometry" />
        </mxCell>
        <mxCell id="Pou-yH7D7qhrqPObjLPt-0" value="Flow: Requirements from stakeholder" style="rounded=1;whiteSpace=wrap;html=1;fontSize=12;glass=0;strokeWidth=1;shadow=0;" vertex="1" parent="WIyWlLk6GJQsqaUBKTNV-1">
          <mxGeometry x="160" y="170" width="120" height="40" as="geometry" />
        </mxCell>
        <mxCell id="Pou-yH7D7qhrqPObjLPt-1" value="Design the schema (tables, relationships, etc.)." style="rounded=1;whiteSpace=wrap;html=1;fontSize=12;glass=0;strokeWidth=1;shadow=0;" vertex="1" parent="WIyWlLk6GJQsqaUBKTNV-1">
          <mxGeometry x="310" y="80" width="120" height="50" as="geometry" />
        </mxCell>
        <mxCell id="Pou-yH7D7qhrqPObjLPt-2" value="Flow: Design concepts based on requirements." style="rounded=1;whiteSpace=wrap;html=1;fontSize=12;glass=0;strokeWidth=1;shadow=0;" vertex="1" parent="WIyWlLk6GJQsqaUBKTNV-1">
          <mxGeometry x="310" y="180" width="120" height="40" as="geometry" />
        </mxCell>
        <mxCell id="Pou-yH7D7qhrqPObjLPt-3" value="&lt;li&gt;Set up the hardware or cloud environment.&lt;/li&gt;&lt;li&gt;&lt;/li&gt;" style="rounded=1;whiteSpace=wrap;html=1;fontSize=12;glass=0;strokeWidth=1;shadow=0;" vertex="1" parent="WIyWlLk6GJQsqaUBKTNV-1">
          <mxGeometry x="450" y="60" width="120" height="60" as="geometry" />
        </mxCell>
        <mxCell id="Pou-yH7D7qhrqPObjLPt-4" value="Flow: Setting up the database platform." style="rounded=1;whiteSpace=wrap;html=1;fontSize=12;glass=0;strokeWidth=1;shadow=0;" vertex="1" parent="WIyWlLk6GJQsqaUBKTNV-1">
          <mxGeometry x="450" y="170" width="120" height="40" as="geometry" />
        </mxCell>
        <mxCell id="Pou-yH7D7qhrqPObjLPt-5" value="Create tables, indexes, and relationships." style="rounded=1;whiteSpace=wrap;html=1;fontSize=12;glass=0;strokeWidth=1;shadow=0;" vertex="1" parent="WIyWlLk6GJQsqaUBKTNV-1">
          <mxGeometry x="590" y="80" width="120" height="40" as="geometry" />
        </mxCell>
        <mxCell id="Pou-yH7D7qhrqPObjLPt-6" value="Flow: Database schema implementation." style="rounded=1;whiteSpace=wrap;html=1;fontSize=12;glass=0;strokeWidth=1;shadow=0;" vertex="1" parent="WIyWlLk6GJQsqaUBKTNV-1">
          <mxGeometry x="590" y="170" width="120" height="50" as="geometry" />
        </mxCell>
        <mxCell id="Pou-yH7D7qhrqPObjLPt-7" value="&lt;li&gt;Migrate existing data into the new database.&lt;/li&gt;&lt;li&gt;&lt;/li&gt;" style="rounded=1;whiteSpace=wrap;html=1;fontSize=12;glass=0;strokeWidth=1;shadow=0;" vertex="1" parent="WIyWlLk6GJQsqaUBKTNV-1">
          <mxGeometry x="40" y="280" width="120" height="60" as="geometry" />
        </mxCell>
        <mxCell id="Pou-yH7D7qhrqPObjLPt-8" value="Flow: Data transferred from legacy systems." style="rounded=1;whiteSpace=wrap;html=1;fontSize=12;glass=0;strokeWidth=1;shadow=0;" vertex="1" parent="WIyWlLk6GJQsqaUBKTNV-1">
          <mxGeometry x="40" y="400" width="120" height="60" as="geometry" />
        </mxCell>
        <mxCell id="Pou-yH7D7qhrqPObjLPt-9" value="Test database performance, data integrity, and security." style="rounded=1;whiteSpace=wrap;html=1;fontSize=12;glass=0;strokeWidth=1;shadow=0;" vertex="1" parent="WIyWlLk6GJQsqaUBKTNV-1">
          <mxGeometry x="200" y="290" width="120" height="50" as="geometry" />
        </mxCell>
        <mxCell id="Pou-yH7D7qhrqPObjLPt-10" value="Flow: Test cases and quality checks." style="rounded=1;whiteSpace=wrap;html=1;fontSize=12;glass=0;strokeWidth=1;shadow=0;" vertex="1" parent="WIyWlLk6GJQsqaUBKTNV-1">
          <mxGeometry x="200" y="390" width="120" height="70" as="geometry" />
        </mxCell>
        <mxCell id="Pou-yH7D7qhrqPObjLPt-11" value="Deploy database for production and document the setup." style="rounded=1;whiteSpace=wrap;html=1;fontSize=12;glass=0;strokeWidth=1;shadow=0;" vertex="1" parent="WIyWlLk6GJQsqaUBKTNV-1">
          <mxGeometry x="350" y="300" width="120" height="40" as="geometry" />
        </mxCell>
        <mxCell id="Pou-yH7D7qhrqPObjLPt-12" value="Flow: Final setup documentation." style="rounded=1;whiteSpace=wrap;html=1;fontSize=12;glass=0;strokeWidth=1;shadow=0;" vertex="1" parent="WIyWlLk6GJQsqaUBKTNV-1">
          <mxGeometry x="350" y="400" width="120" height="60" as="geometry" />
        </mxCell>
        <mxCell id="Pou-yH7D7qhrqPObjLPt-13" value="" style="rounded=0;html=1;jettySize=auto;orthogonalLoop=1;fontSize=11;endArrow=block;endFill=0;endSize=8;strokeWidth=1;shadow=0;labelBackgroundColor=none;edgeStyle=orthogonalEdgeStyle;" edge="1" parent="WIyWlLk6GJQsqaUBKTNV-1">
          <mxGeometry relative="1" as="geometry">
            <mxPoint x="369.5" y="120" as="sourcePoint" />
            <mxPoint x="369.5" y="170" as="targetPoint" />
            <Array as="points">
              <mxPoint x="369.5" y="130" />
              <mxPoint x="369.5" y="130" />
            </Array>
          </mxGeometry>
        </mxCell>
        <mxCell id="Pou-yH7D7qhrqPObjLPt-14" value="" style="rounded=0;html=1;jettySize=auto;orthogonalLoop=1;fontSize=11;endArrow=block;endFill=0;endSize=8;strokeWidth=1;shadow=0;labelBackgroundColor=none;edgeStyle=orthogonalEdgeStyle;" edge="1" parent="WIyWlLk6GJQsqaUBKTNV-1">
          <mxGeometry relative="1" as="geometry">
            <mxPoint x="509.5" y="120" as="sourcePoint" />
            <mxPoint x="509.5" y="170" as="targetPoint" />
          </mxGeometry>
        </mxCell>
        <mxCell id="Pou-yH7D7qhrqPObjLPt-15" value="" style="rounded=0;html=1;jettySize=auto;orthogonalLoop=1;fontSize=11;endArrow=block;endFill=0;endSize=8;strokeWidth=1;shadow=0;labelBackgroundColor=none;edgeStyle=orthogonalEdgeStyle;" edge="1" parent="WIyWlLk6GJQsqaUBKTNV-1">
          <mxGeometry relative="1" as="geometry">
            <mxPoint x="414" y="350" as="sourcePoint" />
            <mxPoint x="414" y="400" as="targetPoint" />
            <Array as="points">
              <mxPoint x="414.5" y="390" />
              <mxPoint x="414.5" y="390" />
            </Array>
          </mxGeometry>
        </mxCell>
        <mxCell id="Pou-yH7D7qhrqPObjLPt-16" value="" style="rounded=0;html=1;jettySize=auto;orthogonalLoop=1;fontSize=11;endArrow=block;endFill=0;endSize=8;strokeWidth=1;shadow=0;labelBackgroundColor=none;edgeStyle=orthogonalEdgeStyle;" edge="1" parent="WIyWlLk6GJQsqaUBKTNV-1">
          <mxGeometry relative="1" as="geometry">
            <mxPoint x="259.5" y="340" as="sourcePoint" />
            <mxPoint x="259.5" y="390" as="targetPoint" />
          </mxGeometry>
        </mxCell>
        <mxCell id="Pou-yH7D7qhrqPObjLPt-17" value="" style="rounded=0;html=1;jettySize=auto;orthogonalLoop=1;fontSize=11;endArrow=block;endFill=0;endSize=8;strokeWidth=1;shadow=0;labelBackgroundColor=none;edgeStyle=orthogonalEdgeStyle;" edge="1" parent="WIyWlLk6GJQsqaUBKTNV-1">
          <mxGeometry relative="1" as="geometry">
            <mxPoint x="99.5" y="350" as="sourcePoint" />
            <mxPoint x="99.5" y="400" as="targetPoint" />
          </mxGeometry>
        </mxCell>
        <mxCell id="Pou-yH7D7qhrqPObjLPt-18" value="" style="rounded=0;html=1;jettySize=auto;orthogonalLoop=1;fontSize=11;endArrow=block;endFill=0;endSize=8;strokeWidth=1;shadow=0;labelBackgroundColor=none;edgeStyle=orthogonalEdgeStyle;" edge="1" parent="WIyWlLk6GJQsqaUBKTNV-1">
          <mxGeometry relative="1" as="geometry">
            <mxPoint x="649.5" y="120" as="sourcePoint" />
            <mxPoint x="649.5" y="170" as="targetPoint" />
          </mxGeometry>
        </mxCell>
        <mxCell id="Pou-yH7D7qhrqPObjLPt-21" value="" style="endArrow=classic;startArrow=classic;html=1;rounded=0;exitX=0.933;exitY=-0.033;exitDx=0;exitDy=0;exitPerimeter=0;" edge="1" parent="WIyWlLk6GJQsqaUBKTNV-1" source="Pou-yH7D7qhrqPObjLPt-7">
          <mxGeometry width="50" height="50" relative="1" as="geometry">
            <mxPoint x="580" y="270" as="sourcePoint" />
            <mxPoint x="630" y="220" as="targetPoint" />
            <Array as="points">
              <mxPoint x="630" y="220" />
            </Array>
          </mxGeometry>
        </mxCell>
        <mxCell id="Pou-yH7D7qhrqPObjLPt-22" value="&lt;p&gt;&lt;strong&gt;1. Define Requirements&lt;/strong&gt;:&lt;/p&gt;" style="text;html=1;align=center;verticalAlign=middle;resizable=0;points=[];autosize=1;strokeColor=none;fillColor=none;" vertex="1" parent="WIyWlLk6GJQsqaUBKTNV-1">
          <mxGeometry x="115" y="20" width="160" height="50" as="geometry" />
        </mxCell>
        <mxCell id="Pou-yH7D7qhrqPObjLPt-23" value="&lt;p&gt;&lt;strong&gt;2. Design Database Architecture&lt;/strong&gt;:&lt;/p&gt;" style="text;html=1;align=center;verticalAlign=middle;resizable=0;points=[];autosize=1;strokeColor=none;fillColor=none;" vertex="1" parent="WIyWlLk6GJQsqaUBKTNV-1">
          <mxGeometry x="260" y="30" width="210" height="50" as="geometry" />
        </mxCell>
        <mxCell id="Pou-yH7D7qhrqPObjLPt-24" value="&lt;p&gt;&lt;strong&gt;3. Set Up Database Environment&lt;/strong&gt;:&lt;/p&gt;" style="text;html=1;align=center;verticalAlign=middle;resizable=0;points=[];autosize=1;strokeColor=none;fillColor=none;" vertex="1" parent="WIyWlLk6GJQsqaUBKTNV-1">
          <mxGeometry x="405" width="210" height="50" as="geometry" />
        </mxCell>
        <mxCell id="Pou-yH7D7qhrqPObjLPt-25" value="&lt;p&gt;&lt;strong&gt;4. Develop Database Structure&lt;/strong&gt;:&lt;/p&gt;" style="text;html=1;align=center;verticalAlign=middle;resizable=0;points=[];autosize=1;strokeColor=none;fillColor=none;" vertex="1" parent="WIyWlLk6GJQsqaUBKTNV-1">
          <mxGeometry x="565" y="20" width="200" height="50" as="geometry" />
        </mxCell>
        <mxCell id="Pou-yH7D7qhrqPObjLPt-26" value="&lt;p&gt;&lt;strong&gt;5. Data Migration (if needed)&lt;/strong&gt;:&lt;/p&gt;" style="text;html=1;align=center;verticalAlign=middle;resizable=0;points=[];autosize=1;strokeColor=none;fillColor=none;" vertex="1" parent="WIyWlLk6GJQsqaUBKTNV-1">
          <mxGeometry y="235" width="190" height="50" as="geometry" />
        </mxCell>
        <mxCell id="Pou-yH7D7qhrqPObjLPt-27" value="&lt;p&gt;&lt;strong&gt;6. Testing and Validation&lt;/strong&gt;:&lt;/p&gt;" style="text;html=1;align=center;verticalAlign=middle;resizable=0;points=[];autosize=1;strokeColor=none;fillColor=none;" vertex="1" parent="WIyWlLk6GJQsqaUBKTNV-1">
          <mxGeometry x="190" y="220" width="170" height="50" as="geometry" />
        </mxCell>
        <mxCell id="Pou-yH7D7qhrqPObjLPt-28" value="&lt;p&gt;&lt;strong&gt;7. Deploy and Document&lt;/strong&gt;:&lt;/p&gt;" style="text;html=1;align=center;verticalAlign=middle;resizable=0;points=[];autosize=1;strokeColor=none;fillColor=none;" vertex="1" parent="WIyWlLk6GJQsqaUBKTNV-1">
          <mxGeometry x="329" y="255" width="170" height="50" as="geometry" />
        </mxCell>
      </root>
    </mxGraphModel>
  </diagram>
</mxfile>
